<?xml version="1.0" encoding="UTF-8" standalone="no"?>
<!-- Uploaded to: SVG Repo, www.svgrepo.com, Generator: SVG Repo Mixer Tools -->

<svg
   width="800px"
   height="800px"
   viewBox="0 0 60.601004 60.601004"
   version="1.1"
   id="svg263"
   sodipodi:docname="restaurant.svg"
   inkscape:version="1.2.2 (b0a8486541, 2022-12-01)"
   xmlns:inkscape="http://www.inkscape.org/namespaces/inkscape"
   xmlns:sodipodi="http://sodipodi.sourceforge.net/DTD/sodipodi-0.dtd"
   xmlns="http://www.w3.org/2000/svg"
   xmlns:svg="http://www.w3.org/2000/svg"
   xmlns:rdf="http://www.w3.org/1999/02/22-rdf-syntax-ns#"
   xmlns:cc="http://creativecommons.org/ns#"
   xmlns:dc="http://purl.org/dc/elements/1.1/">
  <sodipodi:namedview
     id="namedview265"
     pagecolor="#ffffff"
     bordercolor="#000000"
     borderopacity="0.25"
     inkscape:showpageshadow="2"
     inkscape:pageopacity="0.0"
     inkscape:pagecheckerboard="0"
     inkscape:deskcolor="#d1d1d1"
     showgrid="false"
     inkscape:zoom="1.0075"
     inkscape:cx="399.50372"
     inkscape:cy="400"
     inkscape:window-width="1920"
     inkscape:window-height="1008"
     inkscape:window-x="0"
     inkscape:window-y="0"
     inkscape:window-maximized="1"
     inkscape:current-layer="svg263" />
  <defs
     id="defs255" />
  <metadata
     id="metadata257">
    <rdf:RDF>
      <cc:Work
         rdf:about="">
        <dc:format>image/svg+xml</dc:format>
        <dc:type
           rdf:resource="http://purl.org/dc/dcmitype/StillImage" />
        <dc:title>レストラン; Restaurant</dc:title>
        <dc:source>http://www.ecomo.or.jp/barrierfree/pictogram/data/zukigo_panfu_jis110.pdf</dc:source>
      </cc:Work>
    </rdf:RDF>
  </metadata>
  <!-- <path d="m 7.7786277,56.039253 c -1.7775,0 -3.2175,-1.44125 -3.2175,-3.21625 l 0,-45.0437503 c 0,-1.7775 1.44,-3.2175 3.2175,-3.2175 l 45.0437503,0 c 1.77625,0 3.2175,1.44 3.2175,3.2175 l 0,45.0437503 c 0,1.775 -1.44125,3.21625 -3.2175,3.21625 l -45.0437503,0 z" style="fill:#ffffff;fill-opacity:1;stroke:#000000;stroke-width:0.60625005;stroke-linecap:butt;stroke-linejoin:miter;stroke-miterlimit:4;stroke-dasharray:none;stroke-opacity:1"/> -->
  <path
     d="m 43.219748,3.5468116 c -3.543631,0 -6.417109,2.8718446 -6.417109,6.417109 V 31.603275 c 0,2.433795 1.358283,4.553762 3.357295,5.640714 V 57.07557 h 4.177823 V 3.6530552 C 43.976529,3.5909436 43.598955,3.5468116 43.219748,3.5468116"
     style="fill:#ffffff;fill-opacity:1;fill-rule:nonzero;stroke:none;stroke-width:1.30761"
     id="path259" />
  <path
     d="m 30.267843,16.588615 c 0,-0.308924 -0.01307,-0.617847 -0.03923,-0.916964 L 29.225022,3.6514219 H 27.531664 V 16.719377 H 26.045889 V 3.6530564 H 24.363972 V 16.719377 H 22.878198 V 3.6530564 H 21.196281 V 16.719377 H 19.71214 V 3.6514219 h -1.694992 l -1.03138,11.8616821 c -0.03433,0.353055 -0.0523,0.712649 -0.0523,1.075511 0,3.605742 1.824119,6.791413 4.594624,8.685817 v 31.801139 h 4.21705 l -0.01307,-31.851809 c 2.737814,-1.896038 4.535781,-5.057192 4.535781,-8.635147"
     style="fill:#ffffff;fill-opacity:1;fill-rule:nonzero;stroke:none;stroke-width:1.30761"
     id="path261" />
</svg>
